<svg width="40" height="40" viewBox="0 0 40 40" fill="none" xmlns="http://www.w3.org/2000/svg">
<rect width="40" height="40" fill="#D2F2FF"/>
<mask id="mask0" mask-type="alpha" maskUnits="userSpaceOnUse" x="0" y="0" width="40" height="40">
<rect width="40" height="40" fill="white"/>
</mask>
<g mask="url(#mask0)">
<rect width="40" height="40" fill="#D2F2FF"/>
<mask id="mask1" mask-type="alpha" maskUnits="userSpaceOnUse" x="0" y="0" width="40" height="40">
<rect width="40" height="40" fill="white"/>
</mask>
<g mask="url(#mask1)">
<path d="M59.4497 25.4568C59.4359 25.467 59.4222 25.4781 59.4084 25.4883C58.5117 26.1342 57.2756 26.3751 56.2872 25.8849C55.6426 25.5652 55.1685 24.9824 54.7458 24.395C53.7326 22.9856 52.879 21.4317 51.6081 20.255C48.9829 17.8245 45.0548 17.4474 41.5292 17.957C32.0215 19.3312 23.7224 26.0823 14.1276 26.5085C9.66765 26.7068 5.17653 25.4707 1.35292 23.1431C-0.419505 22.0646 -2.05256 20.7581 -3.86992 19.7574C-5.68636 18.7567 -7.76321 18.0645 -9.81072 18.361C-9.94 18.3796 -10.0684 18.4027 -10.1967 18.4314C-11.6886 23.0245 -11.6693 28.1096 -10.7295 32.8843C-9.83639 37.4246 -5.7047 40.2452 -5.50481 40.2452H54.5184C56.9996 40.2452 59.303 38.9424 60.5986 36.8047C60.605 36.7945 60.6114 36.7844 60.6169 36.7742C62.2867 34.0166 61.5311 30.4335 60.3079 27.4471C60.0374 26.7818 59.7431 26.1193 59.4497 25.4568Z" fill="url(#paint0_linear)"/>
<path fill-rule="evenodd" clip-rule="evenodd" d="M34.1406 14.2969L40 20.2344V40H29.5312L29.7656 14.2969H34.1406Z" fill="#B2EBFF"/>
<path d="M32.9051 13.75H7.17302C5.21643 13.75 5.57217 15.6491 5.57217 15.6491C7.52876 25.3819 7.52876 34.996 5.57217 44.7288C5.57217 44.7288 5.57217 46.0938 7.17302 46.0938H32.9051C34.506 46.0938 34.506 44.7288 34.506 44.7288C32.5494 34.996 32.5494 25.3819 34.506 15.6491C34.506 15.6491 34.8617 13.75 32.9051 13.75Z" fill="url(#paint1_linear)"/>
<path fill-rule="evenodd" clip-rule="evenodd" d="M34.5094 15.5504C34.5409 15.3451 34.7417 13.6719 32.9051 13.6719H7.17304L7.11855 13.6724C5.41212 13.7039 5.52489 15.2175 5.56431 15.519L5.56875 15.5504C5.64815 14.9999 5.98261 14.2969 7.17304 14.2969H32.9051C34.0717 14.2969 34.4163 14.972 34.5043 15.5172L34.5094 15.5504ZM5.63031 44.9837L5.62829 44.9934L5.61733 44.953C5.58343 44.8208 5.575 44.7166 5.5729 44.6729L5.5722 44.6506C6.52942 39.8891 7.01834 35.1559 7.03896 30.4233C7.05976 35.1993 6.60364 39.9746 5.67059 44.7778L5.63031 44.9837ZM33.0392 30.4233C33.0596 35.0863 33.5345 39.7499 34.4641 44.4406L34.506 44.6507C34.506 44.6507 34.506 44.7969 34.4499 44.9936L34.506 45.2757C33.5218 40.3799 33.0327 35.5142 33.0386 30.6483L33.0392 30.4233Z" fill="url(#paint2_linear)"/>
<g style="mix-blend-mode:multiply" opacity="0.16">
<path d="M7.20846 46.0938H32.9037C34.5059 46.0938 34.5059 44.7288 34.5059 44.7288C32.5476 34.996 32.5476 25.3819 34.5059 15.6491C34.5059 15.6491 34.862 13.75 32.9037 13.75H29.6992C32.5476 19.9814 31.5982 36.361 21.9847 38.7348C14.0328 40.6932 8.75136 38.0226 6.73372 36.717C6.49635 39.3876 6.08096 42.1175 5.54688 44.7881C5.60622 44.7288 5.60622 46.0938 7.20846 46.0938Z" fill="#0095DA"/>
</g>
<g style="mix-blend-mode:soft-light">
<path d="M32.9051 13.75C33.0374 13.75 33.1592 13.7587 33.2712 13.7749C30.8645 14.1248 23.2279 14.7822 10.3615 15.7474L9.96048 15.7774C8.97086 15.8515 8.22869 16.7138 8.30278 17.7034C8.30871 17.7826 8.31989 17.8613 8.33623 17.9391C8.98936 21.0448 9.23145 25.1954 9.0625 30.3906C8.85417 36.7969 7.94271 40.3906 6.32812 41.1719L6.28012 40.6389C7.47815 32.3796 7.25885 24.1821 5.6222 15.9001L5.57128 15.6441C5.5531 15.538 5.28083 13.7867 7.11501 13.7506L7.17302 13.75H32.9051Z" fill="url(#paint3_linear)"/>
</g>
<g style="mix-blend-mode:multiply" opacity="0.4">
<path d="M34.4533 15.625L34.5295 15.4089L34.5278 15.4459C34.5208 15.5708 34.5061 15.6491 34.5061 15.6491C32.5674 25.2846 32.548 34.8037 34.4479 44.4369L34.5061 44.7288C34.5061 44.7288 34.5061 45.8816 33.2625 46.0684L33.2233 46.0738C21.9206 46.2561 19.3618 45.4294 25.547 43.5938C37.5353 40.036 28.4667 33.5685 34.2727 16.1561L34.4533 15.625Z" fill="#0095DA"/>
</g>
</g>
<g style="mix-blend-mode:multiply" opacity="0.6">
<path fill-rule="evenodd" clip-rule="evenodd" d="M33.9587 18.6838C34.1199 17.6734 34.3024 16.6619 34.506 15.6491C34.506 15.6491 34.8617 13.75 32.9051 13.75H29.3983L30.1512 16.0072C30.3702 17.6126 31.6602 18.7061 33.5217 18.7061C33.67 18.7061 33.8157 18.6986 33.9587 18.6838ZM29.3982 13.75H23.1555L23.4096 16.0073C23.4096 17.498 24.9186 18.7062 26.7801 18.7062C28.642 18.7062 30.151 17.498 30.151 16.0073L29.3982 13.75ZM23.1554 13.75H10.6704L9.92693 16.0073C9.92693 17.498 11.4359 18.7062 13.2974 18.7062C15.1589 18.7062 16.6679 17.498 16.6679 16.0073L16.8593 14.2433L16.668 16.0073C16.668 17.498 18.177 18.7062 20.0389 18.7062C21.9004 18.7062 23.4094 17.498 23.4094 16.0073L23.1554 13.75ZM10.6703 13.75L9.92674 16.0072C9.70774 17.6126 8.41774 18.7061 6.55586 18.7061C6.40795 18.7061 6.26242 18.6986 6.11942 18.6839C5.95819 17.6734 5.77577 16.6619 5.57217 15.6491C5.57217 15.6491 5.21643 13.75 7.17302 13.75H10.6703Z" fill="#0095DA"/>
</g>
<path fill-rule="evenodd" clip-rule="evenodd" d="M14.5836 1.15214L22.3543 2.52234C22.7793 2.59726 23.063 3.00246 22.9881 3.42738L22.3369 7.12041C22.262 7.54533 21.8568 7.82905 21.4318 7.75413L13.6611 6.38394C13.2362 6.30901 12.9524 5.90381 13.0274 5.47889L13.6785 1.78586C13.7535 1.36094 14.1587 1.07722 14.5836 1.15214Z" fill="url(#paint4_linear)"/>
<mask id="mask2" mask-type="alpha" maskUnits="userSpaceOnUse" x="13" y="1" width="10" height="7">
<path fill-rule="evenodd" clip-rule="evenodd" d="M14.5836 1.15214L22.3543 2.52234C22.7793 2.59726 23.063 3.00246 22.9881 3.42738L22.3369 7.12041C22.262 7.54533 21.8568 7.82905 21.4318 7.75413L13.6611 6.38394C13.2362 6.30901 12.9524 5.90381 13.0274 5.47889L13.6785 1.78586C13.7535 1.36094 14.1587 1.07722 14.5836 1.15214Z" fill="white"/>
</mask>
<g mask="url(#mask2)">
<g style="mix-blend-mode:multiply" opacity="0.609119">
<path d="M13.0084 5.58692C14.3334 6.63613 18.056 7.23816 19.5925 6.47601C20.1018 6.22339 20.4097 5.86955 20.6733 5.48179L20.7157 5.41862L20.7574 5.35492L20.8192 5.25851L20.9007 5.12871L20.9953 4.97746L21.0616 4.87279L21.1123 4.79429L21.1468 4.74201L21.1818 4.68982L21.2175 4.63774L21.2539 4.58582L21.2911 4.53407L21.3293 4.48253C21.3357 4.47397 21.3422 4.46541 21.3487 4.45686L21.3883 4.4057C21.3949 4.3972 21.4017 4.38871 21.4085 4.38024L21.4497 4.32954C21.4566 4.32111 21.4637 4.3127 21.4707 4.30431L21.5138 4.25414C21.8413 3.87926 22.2787 3.53737 22.9689 3.28984L23.0153 3.27348L22.2013 7.88976C22.1939 7.93226 22.1533 7.96063 22.1108 7.95314L12.9552 6.33875C12.9127 6.33126 12.8843 6.29074 12.8918 6.24825L13.0084 5.58692Z" fill="#8FC72F"/>
</g>
<rect opacity="0.360349" x="13.8142" y="1.01648" width="9.45313" height="2.65625" transform="rotate(10 13.8142 1.01648)" fill="#BADD8E"/>
<g style="mix-blend-mode:screen" opacity="0.763858">
<path fill-rule="evenodd" clip-rule="evenodd" d="M22.9698 2.63087C23.0548 2.64585 23.1116 2.72689 23.0966 2.81187L22.2284 7.73592C22.2134 7.8209 22.1323 7.87764 22.0473 7.86266L13.0456 6.27541C12.9606 6.26042 12.9038 6.17938 12.9188 6.0944L13.7871 1.17036C13.8021 1.08537 13.8831 1.02863 13.9681 1.04361L22.9698 2.63087ZM22.3517 2.74399L14.53 1.36482C14.2388 1.31347 13.9608 1.50282 13.9001 1.78997L13.8965 1.80843L13.2046 5.73227C13.1533 6.02352 13.3426 6.30153 13.6298 6.36222L13.6482 6.3658L21.4699 7.74497C21.7612 7.79633 22.0392 7.60698 22.0999 7.31983L22.1034 7.30137L22.7953 3.37752C22.8467 3.08628 22.6573 2.80827 22.3702 2.74757L22.3517 2.74399Z" fill="#D2FCA1"/>
</g>
<g style="mix-blend-mode:screen" opacity="0.763858">
<path fill-rule="evenodd" clip-rule="evenodd" d="M15.2851 1.67247C14.6903 1.56758 14.123 1.96479 14.0181 2.55968L14.0045 2.63662C14.5994 2.74151 15.1667 2.34429 15.2716 1.74941L15.2851 1.67247Z" fill="#D2FCA1"/>
</g>
<g style="mix-blend-mode:screen" opacity="0.763858">
<ellipse cx="17.9421" cy="4.60019" rx="1.09375" ry="1.09375" transform="rotate(10 17.9421 4.60019)" fill="#D2FCA1"/>
</g>
<g style="mix-blend-mode:screen" opacity="0.763858">
<path fill-rule="evenodd" clip-rule="evenodd" d="M13.4706 5.55703L13.5791 4.94153C14.174 5.04642 14.5712 5.61371 14.4663 6.20859L14.4527 6.28553L13.9142 6.19056C13.6167 6.13812 13.4181 5.85448 13.4706 5.55703Z" fill="#D2FCA1"/>
</g>
<g style="mix-blend-mode:screen" opacity="0.763858">
<path fill-rule="evenodd" clip-rule="evenodd" d="M22.6533 3.52696L22.5448 4.14246C21.9499 4.03757 21.5527 3.47028 21.6576 2.8754L21.6711 2.79846L22.2097 2.89343C22.5071 2.94587 22.7057 3.22951 22.6533 3.52696Z" fill="#D2FCA1"/>
</g>
<g style="mix-blend-mode:screen" opacity="0.763858">
<path fill-rule="evenodd" clip-rule="evenodd" d="M21.9339 7.04933L22.0424 6.43382C21.4476 6.32893 20.8803 6.72614 20.7754 7.32103L20.7618 7.39797L21.3004 7.49293C21.5978 7.54538 21.8815 7.34677 21.9339 7.04933Z" fill="#D2FCA1"/>
</g>
</g>
<path fill-rule="evenodd" clip-rule="evenodd" d="M12.5952 3.61394L20.481 3.88931C20.9123 3.90437 21.2496 4.26614 21.2346 4.69735L21.1037 8.44507C21.0886 8.87628 20.7269 9.21363 20.2956 9.19857L12.4098 8.9232C11.9786 8.90814 11.6413 8.54637 11.6563 8.11516L11.7872 4.36744C11.8022 3.93623 12.164 3.59888 12.5952 3.61394Z" fill="url(#paint5_linear)"/>
<mask id="mask3" mask-type="alpha" maskUnits="userSpaceOnUse" x="11" y="3" width="11" height="7">
<path fill-rule="evenodd" clip-rule="evenodd" d="M12.5952 3.61394L20.481 3.88931C20.9123 3.90437 21.2496 4.26614 21.2346 4.69735L21.1037 8.44507C21.0886 8.87628 20.7269 9.21363 20.2956 9.19857L12.4098 8.9232C11.9786 8.90814 11.6413 8.54637 11.6563 8.11516L11.7872 4.36744C11.8022 3.93623 12.164 3.59888 12.5952 3.61394Z" fill="white"/>
</mask>
<g mask="url(#mask3)">
<g style="mix-blend-mode:multiply" opacity="0.609119">
<path d="M11.6526 8.22484C13.1106 9.07944 16.8808 9.15752 18.2963 8.18895C18.7655 7.8679 19.0211 7.47466 19.2282 7.05398L19.2613 6.98553L19.2938 6.91664L19.3416 6.81258L19.4043 6.67269L19.4769 6.50975L19.5279 6.39687L19.5673 6.31207L19.5941 6.25551L19.6215 6.19895L19.6496 6.14242L19.6784 6.08592L19.7081 6.0295L19.7387 5.97316C19.7439 5.96378 19.7491 5.9544 19.7543 5.94503L19.7864 5.88887C19.7919 5.87952 19.7973 5.87017 19.8029 5.86084L19.8366 5.80489C19.8424 5.79558 19.8482 5.78628 19.854 5.77698L19.8896 5.72131C20.1618 5.30448 20.5473 4.90506 21.1964 4.56387L21.2401 4.54121L21.0765 9.22586C21.075 9.26898 21.0388 9.30272 20.9957 9.30121L11.7045 8.97676C11.6614 8.97525 11.6276 8.93907 11.6291 8.89595L11.6526 8.22484Z" fill="#8FC72F"/>
</g>
<rect opacity="0.360349" x="11.8145" y="3.58667" width="9.45313" height="2.65625" transform="rotate(2 11.8145 3.58667)" fill="#BADD8E"/>
<g style="mix-blend-mode:screen" opacity="0.763858">
<path fill-rule="evenodd" clip-rule="evenodd" d="M21.1057 3.91113C21.1919 3.91414 21.2594 3.98649 21.2564 4.07273L21.0819 9.06969C21.0789 9.15593 21.0065 9.2234 20.9203 9.22039L11.7852 8.90138C11.699 8.89837 11.6315 8.82602 11.6345 8.73978L11.809 3.74282C11.812 3.65658 11.8844 3.58911 11.9706 3.59212L21.1057 3.91113ZM20.5093 4.10918L12.5718 3.832C12.2762 3.82168 12.0273 4.04788 12.0071 4.34068L12.0062 4.35946L11.8671 8.34141C11.8568 8.63696 12.083 8.88592 12.3758 8.90606L12.3946 8.90703L20.332 9.18422C20.6276 9.19454 20.8766 8.96834 20.8967 8.67554L20.8977 8.65676L21.0367 4.67481C21.047 4.37925 20.8208 4.1303 20.528 4.11016L20.5093 4.10918Z" fill="#D2FCA1"/>
</g>
<g style="mix-blend-mode:screen" opacity="0.763858">
<path fill-rule="evenodd" clip-rule="evenodd" d="M13.3624 4.03158C12.7587 4.0105 12.2522 4.4828 12.2311 5.08649L12.2284 5.16457C12.8321 5.18565 13.3386 4.71335 13.3596 4.10966L13.3624 4.03158Z" fill="#D2FCA1"/>
</g>
<g style="mix-blend-mode:screen" opacity="0.763858">
<ellipse cx="16.4009" cy="6.56106" rx="1.09375" ry="1.09375" transform="rotate(2 16.4009 6.56106)" fill="#D2FCA1"/>
</g>
<g style="mix-blend-mode:screen" opacity="0.763858">
<path fill-rule="evenodd" clip-rule="evenodd" d="M12.1061 8.13085L12.1279 7.50623C12.7316 7.52731 13.2039 8.03379 13.1828 8.63748L13.1801 8.71556L12.6336 8.69647C12.3317 8.68593 12.0956 8.43269 12.1061 8.13085Z" fill="#D2FCA1"/>
</g>
<g style="mix-blend-mode:screen" opacity="0.763858">
<path fill-rule="evenodd" clip-rule="evenodd" d="M20.9168 4.84265L20.895 5.46726C20.2913 5.44618 19.819 4.9397 19.84 4.33601L19.8428 4.25793L20.3893 4.27702C20.6912 4.28756 20.9273 4.5408 20.9168 4.84265Z" fill="#D2FCA1"/>
</g>
<g style="mix-blend-mode:screen" opacity="0.763858">
<path fill-rule="evenodd" clip-rule="evenodd" d="M20.6946 8.43074L20.7164 7.80612C20.1127 7.78503 19.6062 8.25733 19.5851 8.86103L19.5824 8.93911L20.1289 8.95819C20.4308 8.96873 20.684 8.73258 20.6946 8.43074Z" fill="#D2FCA1"/>
</g>
</g>
<g style="mix-blend-mode:multiply" opacity="0.225866">
<ellipse cx="24.6174" cy="5.79824" rx="4.2524" ry="4.24935" transform="rotate(14 24.6174 5.79824)" fill="#DA9000"/>
</g>
<ellipse cx="24.0705" cy="5.32949" rx="4.2524" ry="4.24935" transform="rotate(14 24.0705 5.32949)" fill="url(#paint6_linear)"/>
<g style="mix-blend-mode:screen" opacity="0.513904">
<path fill-rule="evenodd" clip-rule="evenodd" d="M21.2672 8.52507C20.3787 7.51288 19.9847 6.09652 20.335 4.69136C20.9028 2.41422 23.2103 1.02882 25.4891 1.59699C26.1699 1.76673 26.7711 2.09162 27.2644 2.52454C26.713 1.89641 25.9711 1.42393 25.0985 1.20636C22.8197 0.638198 20.5122 2.0236 19.9444 4.30074C19.5463 5.89758 20.1094 7.5089 21.2672 8.52507Z" fill="url(#paint7_linear)"/>
</g>
<g opacity="0.15">
<path d="M27.5982 2.92452C27.527 2.83126 27.4558 2.738 27.3846 2.64474L20.0931 6.81076C20.1421 6.91736 20.1911 7.02395 20.2401 7.13055L27.5982 2.92452Z" fill="url(#paint8_linear)"/>
<path d="M19.8206 5.02494C19.7942 5.43366 19.8257 5.83792 19.9149 6.2377L26.9664 2.20063C26.6728 1.93866 26.3348 1.70336 25.9657 1.51695L19.8206 5.02494Z" fill="url(#paint9_linear)"/>
<path d="M28.329 5.2964C28.3199 5.02986 28.293 4.75888 28.2484 4.48346L21.2413 8.49386C21.4415 8.67591 21.6683 8.82685 21.8951 8.97779L28.329 5.2964Z" fill="url(#paint10_linear)"/>
</g>
<ellipse rx="2.73437" ry="2.73437" transform="matrix(0.970296 0.241923 -0.241921 0.970296 24.0778 5.34591)" fill="url(#paint11_linear)"/>
<path d="M26.5407 4.14396C26.7967 4.77227 26.8155 5.49089 26.5469 6.17104C25.998 7.57825 24.4085 8.26112 23.0103 7.71328C22.3345 7.44517 21.8338 6.93845 21.5429 6.31803C21.8065 6.98146 22.3422 7.5467 23.0607 7.84206C24.4589 8.3899 26.0484 7.70704 26.5973 6.29983C26.8776 5.57278 26.8394 4.79952 26.5407 4.14396Z" fill="url(#paint12_linear)"/>
<path d="M21.6085 4.44281C22.1574 3.0356 23.7469 2.35274 25.1451 2.90058C25.8209 3.16869 26.3216 3.67541 26.6125 4.29583C26.3489 3.63239 25.8132 3.06715 25.0947 2.77179C23.6965 2.22395 22.107 2.90682 21.5581 4.31402C21.2778 5.04107 21.316 5.81433 21.6147 6.46989C21.3587 5.84159 21.3399 5.12296 21.6085 4.44281Z" fill="url(#paint13_linear)"/>
<g style="mix-blend-mode:multiply" opacity="0.609119">
<path fill-rule="evenodd" clip-rule="evenodd" d="M24.8607 6.50042C25.717 5.401 26.8083 3.99992 26.3434 1.83036C26.3356 1.79394 26.3284 1.75846 26.3219 1.72389C27.8439 2.67289 28.6537 4.52513 28.1966 6.35829C27.792 7.98098 26.504 9.15085 24.9724 9.48366C24.9347 9.45849 24.8969 9.43343 24.859 9.40848C23.3625 8.42391 23.9902 7.61802 24.8607 6.50042Z" fill="url(#paint14_linear)"/>
</g>
<path fill-rule="evenodd" clip-rule="evenodd" d="M6.95789 8.20307C7.53906 7.22651 8.40351 6.4657 9.53714 6.4657H12.6065L9.92674 14.6009C9.70774 16.2063 8.41774 17.2998 6.55586 17.2998C6.34474 17.2998 6.13849 17.2844 5.93749 17.2548C4.08874 16.9803 3.03199 14.9786 3.73436 13.2457L6.95789 8.20307Z" fill="url(#paint15_linear)"/>
<path fill-rule="evenodd" clip-rule="evenodd" d="M12.6064 6.46582L9.927 14.6011C9.927 16.0917 11.436 17.2999 13.2975 17.2999C15.159 17.2999 16.668 16.0917 16.668 14.6011L17.5504 6.46582H12.6064Z" fill="url(#paint16_linear)"/>
<path fill-rule="evenodd" clip-rule="evenodd" d="M22.494 6.46582H17.55L16.668 14.6011C16.668 16.0917 18.177 17.2999 20.0388 17.2999C21.9003 17.2999 23.4093 16.0917 23.4093 14.6011L22.494 6.46582Z" fill="url(#paint17_linear)"/>
<path fill-rule="evenodd" clip-rule="evenodd" d="M33.086 8.20307C32.461 7.18745 31.6404 6.4657 30.5067 6.4657H27.4377L30.1512 14.6009C30.3702 16.2063 31.6602 17.2998 33.5217 17.2998C33.7332 17.2998 33.9395 17.2844 34.1401 17.2548C35.9892 16.9803 37.0456 14.9786 36.3432 13.2457L33.086 8.20307Z" fill="url(#paint18_linear)"/>
<path fill-rule="evenodd" clip-rule="evenodd" d="M27.4379 6.46582H22.4939L23.4096 14.6011C23.4096 16.0917 24.9186 17.2999 26.7801 17.2999C28.642 17.2999 30.151 16.0917 30.151 14.6011L27.4379 6.46582Z" fill="url(#paint19_linear)"/>
<g style="mix-blend-mode:multiply">
<path fill-rule="evenodd" clip-rule="evenodd" d="M18.2739 16.9009C18.7872 17.154 19.3917 17.2999 20.0389 17.2999C21.9004 17.2999 23.4094 16.0917 23.4094 14.6011L23.2561 13.2391C19.7029 13.518 16.8354 14.3217 18.2739 16.9009ZM23.2563 13.239L23.4096 14.6011C23.4096 16.0917 24.9186 17.2999 26.7801 17.2999C28.642 17.2999 30.151 16.0917 30.151 14.6011L29.6281 13.0331C29.0363 13.0525 28.3889 13.0633 27.7119 13.0747C26.2771 13.0987 24.7093 13.125 23.2563 13.239ZM29.6282 13.0331L30.1511 14.601C30.3701 16.2064 31.6601 17.2999 33.5216 17.2999C33.7331 17.2999 33.9394 17.2845 34.14 17.2549C35.9891 16.9804 37.0455 14.9786 36.3431 13.2457L33.0859 8.20312C32.6534 7.50024 32.1271 6.93812 31.4683 6.65857C32.4324 8.50942 33.871 11.7644 32.5781 12.6172C32.1644 12.89 31.0587 12.9864 29.6282 13.0331Z" fill="url(#paint20_linear)"/>
</g>
<g style="mix-blend-mode:screen">
<path fill-rule="evenodd" clip-rule="evenodd" d="M30.6479 6.46949C30.6014 6.46697 30.5543 6.4657 30.5067 6.4657H27.4377L27.4377 6.46577H22.494H22.4938H17.5503H17.55H12.6065L12.6065 6.4657H9.53711C8.40348 6.4657 7.53903 7.22651 6.95785 8.20307L3.73433 13.2457C3.64592 13.4638 3.58538 13.6862 3.55078 13.9089C5.25141 13.6412 6.55878 11.5151 7.74789 9.58128C8.06245 9.06973 8.36874 8.57163 8.67184 8.12495C9.55479 6.82377 16.2149 6.82176 22.0754 6.81999C25.8512 6.81886 29.295 6.81782 30.6479 6.46949Z" fill="url(#paint21_linear)"/>
</g>
<path fill-rule="evenodd" clip-rule="evenodd" d="M33.1305 34.8438H6.94759C6.84347 36.8209 6.65098 38.7993 6.37012 40.7812H33.708C33.4271 38.7993 33.2346 36.8209 33.1305 34.8438Z" fill="url(#paint22_linear)"/>
<path fill-rule="evenodd" clip-rule="evenodd" d="M33.1666 34.8438H6.98372C6.8796 36.8209 6.68711 38.7993 6.40625 40.7812H33.7441C33.4632 38.7993 33.2708 36.8209 33.1666 34.8438Z" fill="url(#paint23_linear)"/>
<path fill-rule="evenodd" clip-rule="evenodd" d="M7.03125 30.4687C7.03125 30.4687 7.57812 30.3906 8.04687 30.7031C10.5829 32.3938 12.5841 34.8437 15.632 34.8437H24.9C27.8111 34.8437 29.9491 32.8106 32.1094 30.8594C32.5938 30.4218 33.0469 30.4687 33.0469 30.4687L33.2812 34.8437C33.2812 34.8437 32.3437 35.4297 31.6406 36.7969C30.9375 38.1641 31.0156 40.7812 31.0156 40.7812H9.0625C9.0625 40.7812 9.00391 38.1641 8.35937 36.7969C7.71484 35.4297 6.95312 34.8437 6.95312 34.8437L7.03125 30.4687Z" fill="url(#paint24_linear)"/>
<g style="mix-blend-mode:screen">
<path fill-rule="evenodd" clip-rule="evenodd" d="M8.04687 30.7031C7.57812 30.3906 7.03125 30.4688 7.03125 30.4688L6.95312 34.8438C6.95312 34.8438 7.01262 34.8895 7.11243 34.9853L7.16853 31.8436C7.17946 31.2314 7.69364 30.676 8.20312 31.0156C8.87069 31.4607 9.49413 31.9675 10.1086 32.4669C11.6968 33.758 13.2247 35 15.2986 35H25.1885C28.0264 35 30.1596 33.0741 32.2656 31.1719C32.5861 30.8824 32.8929 30.805 33.0639 30.7857L33.0469 30.4688C33.0469 30.4688 32.5938 30.4219 32.1094 30.8594C32.0316 30.9297 31.9538 31 31.876 31.0704C29.7941 32.9544 27.7063 34.8438 24.9 34.8438H15.632C13.392 34.8438 11.7173 33.5204 9.98017 32.1478C9.35368 31.6527 8.71906 31.1513 8.04687 30.7031Z" fill="url(#paint25_linear)"/>
</g>
<g style="mix-blend-mode:multiply">
<path fill-rule="evenodd" clip-rule="evenodd" d="M33.1817 32.985L33.2812 34.8438C33.2812 34.8438 32.3437 35.4297 31.6406 36.7969C30.9375 38.1641 31.0156 40.7813 31.0156 40.7813H15.3909C15.4552 40.7804 27.581 40.6194 28.6719 38.5157C29.627 36.6736 31.7599 33.4512 33.1817 32.985Z" fill="url(#paint26_linear)"/>
</g>
<ellipse cx="26.1158" cy="22.7088" rx="1.60241" ry="1.60585" fill="#133F72"/>
<ellipse cx="25.507" cy="22.0343" rx="0.673016" ry="0.67445" fill="white"/>
<ellipse cx="13.8124" cy="22.7088" rx="1.60241" ry="1.60585" fill="#133F72"/>
<ellipse cx="13.2675" cy="22.0305" rx="0.673009" ry="0.67445" fill="white"/>
<g style="mix-blend-mode:multiply" opacity="0.373977">
<path d="M24.1811 20.6859C24.0548 20.6808 23.9307 20.6038 23.8398 20.4743C23.7042 20.253 23.7449 19.9491 23.9391 19.7952C25.3968 18.5964 26.9803 19.0026 27.9834 19.7986C28.1843 19.9506 28.2225 20.2578 28.0893 20.486C27.9561 20.7143 27.6862 20.7572 27.4854 20.6052C27.1147 20.3204 25.8134 19.4583 24.4368 20.5885C24.3715 20.6578 24.2757 20.6898 24.1811 20.6859Z" fill="url(#paint27_linear)"/>
</g>
<g style="mix-blend-mode:multiply" opacity="0.373977">
<path d="M12.2795 20.7588C12.1532 20.7536 12.0291 20.6767 11.9382 20.5471C11.8026 20.3259 11.8433 20.0219 12.0375 19.8681C13.4951 18.6693 15.0787 19.0755 16.0818 19.8715C16.2826 20.0235 16.3209 20.3306 16.1876 20.5589C16.0544 20.7871 15.7846 20.83 15.5837 20.678C15.2131 20.3932 13.9118 19.5312 12.5351 20.6614C12.4699 20.7306 12.3741 20.7627 12.2795 20.7588Z" fill="url(#paint28_linear)"/>
</g>
<path d="M23.9633 20.3948C23.8371 20.3897 23.713 20.3127 23.622 20.1831C23.4865 19.9619 23.5271 19.6579 23.7213 19.5041C25.179 18.3053 26.7625 18.7115 27.7656 19.5075C27.9665 19.6595 28.0047 19.9666 27.8715 20.1949C27.7383 20.4231 27.4684 20.466 27.2676 20.314C26.8969 20.0292 25.5956 19.1672 24.219 20.2974C24.1537 20.3666 24.058 20.3987 23.9633 20.3948Z" fill="url(#paint29_linear)"/>
<path d="M12.0614 20.4676C11.9352 20.4624 11.8111 20.3854 11.7202 20.2559C11.5846 20.0346 11.6253 19.7307 11.8195 19.5768C13.2771 18.378 14.8606 18.7842 15.8638 19.5802C16.0646 19.7322 16.1028 20.0394 15.9696 20.2676C15.8364 20.4959 15.5666 20.5388 15.3657 20.3868C14.9951 20.102 13.6937 19.2399 12.3171 20.3701C12.2519 20.4394 12.1561 20.4714 12.0614 20.4676Z" fill="url(#paint30_linear)"/>
<g style="mix-blend-mode:multiply" opacity="0.586961">
<path d="M27.4219 27.191C27.4219 31.2193 24.111 34.4531 20.0637 34.4531C17.9059 34.4531 15.9581 33.5348 14.6094 32.0671C15.9261 33.2776 17.6919 34.0159 19.6265 34.0159C23.6739 34.0159 26.9848 30.7821 26.9848 26.7537C26.9848 26.5711 26.9402 26.3994 26.862 26.25C27.1934 26.4197 27.4219 26.7773 27.4219 27.191Z" fill="#0B99DF"/>
</g>
<path d="M26.4062 25.7031C26.924 25.7031 27.3438 26.1229 27.3438 26.6406C27.3438 28.1441 26.8324 29.8689 25.8383 31.2187C24.5466 32.9725 22.5635 33.9844 19.9553 33.9844C17.3475 33.9844 15.3439 33.0501 14.0234 31.4041C12.9643 30.084 12.4219 28.3745 12.4219 26.7862C12.4219 26.2685 12.8416 25.8487 13.3594 25.8487C13.8771 25.8487 14.2969 26.2685 14.2969 26.7862C14.2969 27.9662 14.7076 29.2606 15.4859 30.2308C16.4457 31.4271 17.9088 32.1094 19.9553 32.1094C21.9649 32.1094 23.3887 31.3829 24.3286 30.1068C25.0613 29.1119 25.4561 27.8036 25.4685 26.6941L25.4688 26.6406C25.4688 26.1229 25.8885 25.7031 26.4062 25.7031Z" fill="#CAF3FF"/>
<path fill-rule="evenodd" clip-rule="evenodd" d="M13.3362 39.0614C13.4994 39.0614 13.6512 39.038 13.7916 38.9912C13.9321 38.9444 14.0544 38.8787 14.1587 38.7941C14.2629 38.7095 14.3452 38.6098 14.4056 38.495C14.466 38.3802 14.4962 38.2549 14.4962 38.1189C14.4962 37.9618 14.4706 37.8282 14.4192 37.7179C14.3678 37.6077 14.2999 37.5148 14.2153 37.4392C14.1307 37.3637 14.0348 37.3025 13.9276 37.2557C13.8203 37.2089 13.7108 37.1719 13.599 37.1447C13.4087 37.1024 13.2592 37.0496 13.1505 36.9861C13.0417 36.9227 12.9873 36.8396 12.9873 36.7369C12.9873 36.6976 12.9987 36.6606 13.0213 36.6259C13.044 36.5911 13.0742 36.5609 13.1119 36.5353C13.1497 36.5096 13.192 36.4892 13.2388 36.4741C13.2856 36.459 13.3332 36.4514 13.3815 36.4514C13.454 36.4514 13.5228 36.4605 13.5877 36.4786C13.8706 36.5576 14.1717 36.5664 14.3689 36.3488L14.4237 36.2883C14.4237 36.2883 14.3565 36.2241 14.3037 36.1773C14.2508 36.1305 14.1828 36.0852 14.0997 36.0414C14.0167 35.9976 13.9162 35.9598 13.7984 35.9281C13.6806 35.8964 13.5447 35.8805 13.3906 35.8805C13.2033 35.8805 13.0409 35.9054 12.9035 35.9553C12.766 36.0051 12.6513 36.0731 12.5591 36.1592C12.467 36.2453 12.3983 36.3442 12.3529 36.456C12.3076 36.5677 12.285 36.6871 12.285 36.8139C12.285 36.9287 12.3046 37.0329 12.3439 37.1266C12.3832 37.2202 12.4383 37.3033 12.5093 37.3758C12.5803 37.4483 12.6649 37.5102 12.763 37.5616C12.8612 37.6129 12.9677 37.6522 13.0825 37.6794C13.3181 37.7398 13.4903 37.801 13.599 37.8629C13.7078 37.9248 13.7622 38.0117 13.7622 38.1235C13.7622 38.1748 13.7493 38.2209 13.7237 38.2617C13.698 38.3024 13.664 38.3372 13.6217 38.3659C13.5794 38.3946 13.5326 38.4165 13.4812 38.4316C13.4299 38.4467 13.3785 38.4542 13.3272 38.4542C13.2396 38.4542 13.1572 38.4429 13.0802 38.4203C13.0032 38.3976 12.9322 38.3681 12.8672 38.3319C12.6712 38.2225 12.432 38.213 12.2796 38.3779L12.1128 38.5585C12.1128 38.5585 12.2389 38.6838 12.319 38.7442C12.399 38.8047 12.4889 38.8583 12.5886 38.9051C12.6883 38.9519 12.8 38.9897 12.9239 39.0184C13.0477 39.0471 13.1852 39.0614 13.3362 39.0614ZM16.567 38.9844C16.8999 38.9844 17.1697 38.7146 17.1697 38.3817H15.688V37.7292H16.1819C16.5022 37.7292 16.7619 37.4696 16.7619 37.1492H15.688V36.5602H16.4719C16.8022 36.5602 17.07 36.2924 17.07 35.9621H15.0037V38.9844H16.567ZM19.7616 38.3772C19.7616 38.7125 19.4897 38.9844 19.1544 38.9844H17.6319V35.9621H18.3161V38.3772H19.7616ZM21.6873 38.9844C22.0227 38.9844 22.2945 38.7125 22.2945 38.3772H20.849V35.9621H20.1648V38.9844H21.6873ZM24.8637 38.3817C24.8637 38.7146 24.5939 38.9844 24.2611 38.9844H22.6978V35.9621H24.7641C24.7641 36.2924 24.4963 36.5602 24.1659 36.5602H23.382V37.1492H24.4559C24.4559 37.4696 24.1963 37.7292 23.8759 37.7292H23.382V38.3817H24.8637ZM25.3259 38.9844C25.6938 38.9844 25.992 38.6862 25.992 38.3183V37.8742H26.3726L26.5948 38.3133C26.8032 38.7249 27.2253 38.9844 27.6867 38.9844L27.0161 37.7745C27.1732 37.6869 27.2948 37.5699 27.3809 37.4234C27.4669 37.2769 27.51 37.1054 27.51 36.9091C27.51 36.7792 27.4881 36.6568 27.4443 36.5421C27.4005 36.4273 27.334 36.3268 27.2449 36.2407C27.1558 36.1546 27.0448 36.0867 26.9119 36.0368C26.7789 35.987 26.6249 35.9621 26.4497 35.9621H25.3259V38.9844ZM25.992 36.5239V37.326H26.4134C26.5403 37.326 26.64 37.2882 26.7125 37.2127C26.785 37.1372 26.8212 37.042 26.8212 36.9272C26.8212 36.8034 26.785 36.7052 26.7125 36.6327C26.64 36.5602 26.5403 36.5239 26.4134 36.5239H25.992Z" fill="white"/>
</g>
<defs>
<linearGradient id="paint0_linear" x1="-107.65" y1="13.2588" x2="-106.831" y2="93.9457" gradientUnits="userSpaceOnUse">
<stop offset="0.00261239" stop-color="#C8F1FF"/>
<stop offset="0.9958" stop-color="#4CD3FF"/>
</linearGradient>
<linearGradient id="paint1_linear" x1="-6.09694" y1="28.3653" x2="22.5918" y2="51.2213" gradientUnits="userSpaceOnUse">
<stop stop-color="#43D1FF"/>
<stop offset="1" stop-color="#0095DA"/>
</linearGradient>
<linearGradient id="paint2_linear" x1="-6.86189" y1="39.334" x2="47.7391" y2="60.3331" gradientUnits="userSpaceOnUse">
<stop stop-color="white"/>
<stop offset="1" stop-color="#0095DA"/>
</linearGradient>
<linearGradient id="paint3_linear" x1="-5.91455" y1="25.9389" x2="18.4544" y2="51.2716" gradientUnits="userSpaceOnUse">
<stop stop-color="#43D1FF"/>
<stop offset="1" stop-color="#0095DA"/>
</linearGradient>
<linearGradient id="paint4_linear" x1="13.8142" y1="1.01648" x2="12.8917" y2="6.24827" gradientUnits="userSpaceOnUse">
<stop stop-color="#8BC63F"/>
<stop offset="1" stop-color="#496D00"/>
</linearGradient>
<linearGradient id="paint5_linear" x1="11.8145" y1="3.58667" x2="11.629" y2="8.89593" gradientUnits="userSpaceOnUse">
<stop stop-color="#8BC63F"/>
<stop offset="1" stop-color="#496D00"/>
</linearGradient>
<linearGradient id="paint6_linear" x1="29.8711" y1="7.86886" x2="25.6271" y2="-1.04519" gradientUnits="userSpaceOnUse">
<stop stop-color="#F27321"/>
<stop offset="1" stop-color="#FDF999"/>
</linearGradient>
<linearGradient id="paint7_linear" x1="27.0743" y1="8.30817" x2="24.6309" y2="-0.313701" gradientUnits="userSpaceOnUse">
<stop stop-color="#F27321"/>
<stop offset="1" stop-color="#FDF999"/>
</linearGradient>
<linearGradient id="paint8_linear" x1="16.9997" y1="-1.04948" x2="17.9019" y2="10.9303" gradientUnits="userSpaceOnUse">
<stop offset="0.000637833" stop-color="#FBFF36"/>
<stop offset="1" stop-color="white"/>
</linearGradient>
<linearGradient id="paint9_linear" x1="16.6981" y1="-0.986318" x2="17.6617" y2="10.9901" gradientUnits="userSpaceOnUse">
<stop offset="0.000637833" stop-color="#FBFF36"/>
<stop offset="1" stop-color="white"/>
</linearGradient>
<linearGradient id="paint10_linear" x1="17.7827" y1="-1.09895" x2="18.7404" y2="10.8779" gradientUnits="userSpaceOnUse">
<stop offset="0.000637833" stop-color="#FBFF36"/>
<stop offset="1" stop-color="white"/>
</linearGradient>
<linearGradient id="paint11_linear" x1="12.0398" y1="7.58391" x2="7.69927" y2="-6.70177" gradientUnits="userSpaceOnUse">
<stop stop-color="#FDE699"/>
<stop offset="1" stop-color="#F27021"/>
</linearGradient>
<linearGradient id="paint12_linear" x1="28.4177" y1="7.8156" x2="28.4082" y2="0.200461" gradientUnits="userSpaceOnUse">
<stop stop-color="#FFF100"/>
<stop offset="1" stop-color="#F27021"/>
</linearGradient>
<linearGradient id="paint13_linear" x1="29.8398" y1="9.56329" x2="28.9416" y2="-0.777969" gradientUnits="userSpaceOnUse">
<stop stop-color="#FFF100"/>
<stop offset="1" stop-color="#E2691F"/>
</linearGradient>
<linearGradient id="paint14_linear" x1="29.208" y1="4.37784" x2="22.43" y2="0.535044" gradientUnits="userSpaceOnUse">
<stop stop-color="#F27321"/>
<stop offset="1" stop-color="#FDF999"/>
</linearGradient>
<linearGradient id="paint15_linear" x1="3.51562" y1="6.4657" x2="3.51562" y2="17.2998" gradientUnits="userSpaceOnUse">
<stop stop-color="#F1454F"/>
<stop offset="1" stop-color="#DF2127"/>
</linearGradient>
<linearGradient id="paint16_linear" x1="9.927" y1="6.46582" x2="9.927" y2="17.2999" gradientUnits="userSpaceOnUse">
<stop stop-color="#F9C345"/>
<stop offset="1" stop-color="#F19021"/>
</linearGradient>
<linearGradient id="paint17_linear" x1="16.668" y1="6.46582" x2="16.668" y2="17.2999" gradientUnits="userSpaceOnUse">
<stop stop-color="#F317B5"/>
<stop offset="1" stop-color="#E20A7E"/>
</linearGradient>
<linearGradient id="paint18_linear" x1="27.4377" y1="6.4657" x2="27.4377" y2="17.2998" gradientUnits="userSpaceOnUse">
<stop stop-color="#17D891"/>
<stop offset="1" stop-color="#0AAF58"/>
</linearGradient>
<linearGradient id="paint19_linear" x1="22.4939" y1="6.46582" x2="22.4939" y2="17.2999" gradientUnits="userSpaceOnUse">
<stop stop-color="#C5E172"/>
<stop offset="1" stop-color="#93BF3E"/>
</linearGradient>
<linearGradient id="paint20_linear" x1="17.3207" y1="16.6971" x2="32.3588" y2="22.6514" gradientUnits="userSpaceOnUse">
<stop stop-color="#C5E172" stop-opacity="0.550455"/>
<stop offset="1" stop-color="#93BF3E"/>
</linearGradient>
<linearGradient id="paint21_linear" x1="6.27181" y1="11.4929" x2="23.6782" y2="11.4929" gradientUnits="userSpaceOnUse">
<stop stop-color="#FFCACD" stop-opacity="0.326302"/>
<stop offset="1" stop-color="#F25B61"/>
</linearGradient>
<linearGradient id="paint22_linear" x1="6.37012" y1="34.8438" x2="6.37012" y2="40.7812" gradientUnits="userSpaceOnUse">
<stop stop-color="#F86D77"/>
<stop offset="1" stop-color="#EF3B42"/>
</linearGradient>
<linearGradient id="paint23_linear" x1="-4.57612" y1="37.5267" x2="-2.08481" y2="47.7245" gradientUnits="userSpaceOnUse">
<stop stop-color="#43D1FF"/>
<stop offset="1" stop-color="#0095DA"/>
</linearGradient>
<linearGradient id="paint24_linear" x1="3.88682" y1="31.0546" x2="4.36408" y2="41.501" gradientUnits="userSpaceOnUse">
<stop stop-color="#0087AC"/>
<stop offset="1" stop-color="#004F74"/>
</linearGradient>
<linearGradient id="paint25_linear" x1="-3.84124" y1="32.4781" x2="-2.5137" y2="40.3286" gradientUnits="userSpaceOnUse">
<stop stop-color="#43D1FF"/>
<stop offset="1" stop-color="#0095DA"/>
</linearGradient>
<linearGradient id="paint26_linear" x1="15.3909" y1="32.985" x2="15.3909" y2="40.7813" gradientUnits="userSpaceOnUse">
<stop stop-color="#D0D0D0"/>
<stop offset="1" stop-color="#D49C9E"/>
</linearGradient>
<linearGradient id="paint27_linear" x1="23.3646" y1="20.5629" x2="26.9926" y2="22.3941" gradientUnits="userSpaceOnUse">
<stop stop-color="#1190EB"/>
<stop offset="1" stop-color="#39B8FD"/>
</linearGradient>
<linearGradient id="paint28_linear" x1="11.463" y1="20.6358" x2="15.091" y2="22.467" gradientUnits="userSpaceOnUse">
<stop stop-color="#1190EB"/>
<stop offset="1" stop-color="#39B8FD"/>
</linearGradient>
<linearGradient id="paint29_linear" x1="23.1468" y1="20.2718" x2="26.7749" y2="22.103" gradientUnits="userSpaceOnUse">
<stop stop-color="#14A2EC"/>
<stop offset="1" stop-color="#007BBE"/>
</linearGradient>
<linearGradient id="paint30_linear" x1="11.2449" y1="20.3445" x2="14.873" y2="22.1757" gradientUnits="userSpaceOnUse">
<stop stop-color="#14A2EC"/>
<stop offset="1" stop-color="#007BBE"/>
</linearGradient>
</defs>
</svg>
